<svg xmlns="http://www.w3.org/2000/svg" viewBox="0 0 256 256">
  <defs>
    <linearGradient id="grad" x1="0%" y1="0%" x2="100%" y2="100%">
      <stop offset="0%" style="stop-color:#7C3AED;stop-opacity:1" />
      <stop offset="100%" style="stop-color:#3B82F6;stop-opacity:1" />
    </linearGradient>
  </defs>
  <rect width="256" height="256" fill="#1a1a1a"/>
  <path d="M 128 40 C 90 40 60 70 60 108 C 60 128 68 146 80 160 L 80 180 C 80 190 88 198 98 198 L 128 198 L 128 168 L 100 168 C 100 168 90 168 90 158 L 90 108 C 90 85 108 68 128 68 C 148 68 166 85 166 108 L 166 148 C 166 158 156 158 156 158 L 128 158 L 128 188 L 158 188 C 168 188 176 180 176 170 L 176 108 C 176 70 146 40 128 40 Z" fill="url(#grad)"/>
  <path d="M 128 88 L 98 88 L 98 118 L 128 118 Z" fill="url(#grad)"/>
  <rect x="128" y="88" width="30" height="100" fill="url(#grad)"/>
</svg>